<svg id="Capa_1" enable-background="new 0 0 512 512" height="512" viewBox="0 0 512 512" width="512" xmlns="http://www.w3.org/2000/svg"><g><path d="m512 256c0 9.01-.47 17.91-1.38 26.68-1.888 18.24-39.554 25.651-45.07 42.55-3.629 11.117 25.866 32.161 20.81 42.55-6 12.36-12.97 24.15-20.81 35.3-10.286 14.63-68.173 17.989-81.225 30.145-19.243 17.923 4.855 43.06-19.205 54.405-33.1 15.63-70.09 24.37-109.12 24.37-38.58 0-75.17-8.54-107.98-23.83-19.45-9.056-11.172-20.493-27.594-33.926-18.086-14.795-60.511-32.013-73.976-51.164-7.84-11.15-14.81-22.94-20.81-35.3-6.37-13.09 10.546-32.218 6.465-46.441s-29.16-23.539-30.725-38.659c-.91-8.77-1.38-17.67-1.38-26.68 0-141.38 114.62-256 256-256 51.83 0 100.07 15.41 140.38 41.89 16.525 10.855 1.511 36.044 15.072 50.325s55.698 17.655 65.698 34.765c6.58 11.25 12.32 23.05 17.15 35.31 5.097 12.946-31.696 26.408-28.75 40.286 3.083 14.518 45.799 29.491 46.3 44.804.1 2.86.15 5.74.15 8.62z" fill="#5f6ca5"/><g><path d="m477.15 126.98h-244.58v-85.09h163.81c33.05 21.71 60.77 50.87 80.77 85.09z" fill="#db4955"/><path d="m275.12 84.44c0 23.5-19.05 42.54-42.55 42.54h-232.57v-85.09h232.57c23.5 0 42.55 19.05 42.55 42.55z" fill="#9dc53d"/></g><g><path d="m280.19 282.68v85.1h-254.55c-12.74-26.18-21.13-54.86-24.26-85.1z" fill="#db4955"/><path d="m510.62 282.68c-3.13 30.24-11.52 58.92-24.26 85.1h-206.17c-23.5 0-42.55-19.05-42.55-42.55s19.05-42.55 42.55-42.55z" fill="#9dc53d"/></g><g><path d="m511.85 247.38h-255.47v-85.09h237.92c10.43 26.49 16.57 55.14 17.55 85.09z" fill="#f2d233"/><path d="m298.5 203.89-40.82 42.55-223.35.81-34.33.13v-85.09h256.04z" fill="#62a4fa"/></g><g><path d="m256.38 403.08v85.09h-108.36c-40.87-19.03-75.88-48.55-101.57-85.09z" fill="#f2d233"/><path d="m465.55 403.08c-25.45 36.2-60.05 65.51-100.43 84.55l-110.04-.4-40.82-42.55 42.45-41.6z" fill="#62a4fa"/></g><g fill="#744c9d"><path d="m165.806 171.197c-1.384-3.365-4.626-5.538-8.264-5.538-.003 0-.007 0-.009 0-3.642.003-6.884 2.184-8.262 5.554-.023.056-.045.112-.066.168l-23.787 62.454c-1.474 3.871.468 8.204 4.339 9.678.878.335 1.781.493 2.668.493 3.022 0 5.871-1.84 7.01-4.833l4.084-10.724h27.865l4.039 10.702c1.462 3.875 5.787 5.831 9.665 4.369 3.875-1.462 5.832-5.79 4.369-9.665l-23.57-62.457c-.026-.065-.053-.133-.081-.201zm-16.574 42.255 8.283-21.749 8.208 21.749z"/><path d="m351.25 412.193c-.026-.07-.054-.139-.082-.208-1.385-3.363-4.627-5.534-8.263-5.534-.004 0-.008 0-.012 0-3.64.004-6.882 2.185-8.26 5.554-.023.056-.045.112-.066.168l-23.787 62.454c-1.474 3.871.468 8.204 4.339 9.678 3.869 1.475 8.204-.469 9.678-4.339l4.084-10.724h27.864l4.039 10.702c1.134 3.003 3.987 4.854 7.019 4.854.879 0 1.775-.156 2.646-.485 3.875-1.462 5.832-5.79 4.369-9.665zm-16.654 42.051 8.283-21.749 8.207 21.749z"/><path d="m186.94 317.729h-18.95c-4.142 0-7.5 3.358-7.5 7.5s3.358 7.5 7.5 7.5h10.644c-1.95 8.767-7.625 16.673-19.036 16.673-13.329 0-24.173-10.844-24.173-24.173s10.844-24.173 24.173-24.173c4.845 0 9.517 1.426 13.511 4.124 3.433 2.319 8.094 1.416 10.413-2.017s1.416-8.094-2.017-10.413c-6.483-4.379-14.058-6.694-21.907-6.694-21.6 0-39.173 17.573-39.173 39.173s17.573 39.173 39.173 39.173c20.514 0 34.842-16.109 34.842-39.173 0-4.143-3.357-7.5-7.5-7.5z"/><path d="m346.462 123.61c20.514 0 34.842-16.108 34.842-39.173 0-4.142-3.358-7.5-7.5-7.5h-18.95c-4.142 0-7.5 3.358-7.5 7.5s3.358 7.5 7.5 7.5h10.644c-1.95 8.767-7.625 16.673-19.036 16.673-13.329 0-24.173-10.844-24.173-24.173s10.844-24.173 24.173-24.173c4.845 0 9.517 1.426 13.51 4.124 3.432 2.32 8.095 1.417 10.413-2.016 2.319-3.432 1.417-8.094-2.016-10.413-6.482-4.38-14.058-6.695-21.907-6.695-21.6 0-39.173 17.573-39.173 39.173s17.573 39.173 39.173 39.173z"/><path d="m374.931 342.214c-3.174-2.663-7.904-2.248-10.566.926-.565.674-1.175 1.304-1.813 1.872-3.271 2.913-7.44 4.39-12.395 4.39-13.329 0-24.173-10.844-24.173-24.173s10.844-24.173 24.173-24.173c4.845 0 9.517 1.426 13.511 4.124 3.432 2.319 8.095 1.416 10.413-2.017 2.319-3.432 1.416-8.094-2.017-10.413-6.483-4.379-14.058-6.694-21.907-6.694-21.6 0-39.173 17.573-39.173 39.173s17.573 39.173 39.173 39.173c8.621 0 16.357-2.832 22.372-8.189 1.178-1.05 2.298-2.204 3.328-3.432 2.662-3.174 2.247-7.904-.926-10.567z"/><path d="m163.293 123.61c8.621 0 16.356-2.832 22.369-8.187 1.18-1.05 2.301-2.206 3.333-3.436 2.661-3.174 2.245-7.904-.929-10.566s-7.905-2.246-10.566.929c-.564.673-1.173 1.301-1.812 1.87-3.271 2.913-7.44 4.39-12.395 4.39-13.329 0-24.173-10.844-24.173-24.173s10.844-24.173 24.173-24.173c4.845 0 9.517 1.426 13.51 4.124 3.432 2.32 8.095 1.417 10.413-2.016 2.319-3.432 1.417-8.094-2.016-10.413-6.482-4.38-14.058-6.695-21.907-6.695-21.6 0-39.173 17.573-39.173 39.173s17.573 39.173 39.173 39.173z"/><path d="m344.226 244.006c4.142 0 7.5-3.358 7.5-7.5v-55.846h10.062c4.142 0 7.5-3.358 7.5-7.5s-3.358-7.5-7.5-7.5h-34.983c-4.142 0-7.5 3.358-7.5 7.5s3.358 7.5 7.5 7.5h9.921v55.846c0 4.142 3.358 7.5 7.5 7.5z"/><path d="m174.925 406.452h-34.983c-4.142 0-7.5 3.358-7.5 7.5s3.358 7.5 7.5 7.5h9.921v55.846c0 4.142 3.358 7.5 7.5 7.5s7.5-3.358 7.5-7.5v-55.846h10.062c4.142 0 7.5-3.358 7.5-7.5s-3.358-7.5-7.5-7.5z"/></g><path d="m0 41.89h34.33v85.09h-34.33z" fill="#92b638"/><path d="m0 162.29h34.33v84.96l-34.33.13z" fill="#5391f8"/><path d="m1.38 282.68h32.95v85.1h-8.69c-12.74-26.18-21.13-54.86-24.26-85.1z" fill="#d72f3d"/></g></svg>